<svg width="155" height="40" viewBox="0 0 155 40" fill="none" xmlns="http://www.w3.org/2000/svg">
<path d="M24.3269 0.769232H0V1.77885C4.56731 1.77885 5 2.45192 5 5.38461V34.6154C5 37.5481 4.56731 38.2212 0 38.2212V39.2308H13.0769V38.2212C8.36539 38.2212 7.93269 37.5481 7.93269 34.6154V20.9615H15.4327C18.3654 20.9615 19.0385 21.3942 19.0385 26.4904H20.0481V13.8942H19.0385C19.0385 18.9904 18.3654 19.4231 15.4327 19.4231H7.93269V4.47115C7.93269 3.17308 8.65385 2.45192 10 2.45192H18.9904C22.5 2.45192 23.3173 3.17308 23.9423 10L25.1442 9.90385L24.4231 1.73077L24.3269 0.769232Z" fill="black"/>
<path d="M33.3297 40C39.0509 40 42.3201 33.8942 42.3201 26.4423C42.3201 18.8942 38.6182 13.125 33.3297 13.125C27.5605 13.125 24.2912 19.2308 24.2912 26.6827C24.2912 34.2308 27.9932 40 33.3297 40ZM33.9547 38.3173C29.3393 38.3173 27.0797 31.2019 27.0797 24.6635C27.0797 19.7596 28.7624 14.8077 32.7047 14.8077C37.272 14.8077 39.5316 21.9712 39.5316 28.5096C39.5316 33.3654 37.8489 38.3173 33.9547 38.3173Z" fill="black"/>
<path d="M56.6241 13.125C54.2683 13.125 52.201 15.2404 50.8549 17.9327H50.7106V13.6538L50.1337 13.125L44.9414 15.2404L45.326 16.1538C48.1145 15.0481 48.1145 15.5769 48.1145 18.6058V34.6154C48.1145 37.5962 47.7299 38.2212 44.9895 38.2212V39.2308H55.4702V38.1731C51.2395 38.1731 50.7106 37.5962 50.7106 34.5192V20.4327C52.0087 17.2115 53.3068 15.7212 54.4126 15.7212C54.9414 15.7212 55.1818 15.9135 55.6626 16.3942C56.0952 16.875 56.4318 17.1635 57.1049 17.1635C57.9222 17.1635 58.8356 16.3942 58.8356 15C58.8356 13.8942 58.0183 13.125 56.6241 13.125Z" fill="black"/>
<path d="M77.1052 22.2596L90.4706 4.47115C92.2976 2.01923 93.9322 1.77885 95.9995 1.77885L96.2879 0.769232H86.336L85.9995 1.77885C90.7591 1.77885 90.1341 2.11539 88.4033 4.47115L76.8649 20H76.6245L74.0764 5.28846C73.5956 2.40385 73.7399 1.77885 77.7783 1.77885L78.1149 0.769232H67.4418L67.1533 1.77885C69.7975 1.77885 70.5668 2.35577 71.0956 5.28846L74.2206 22.3077L70.3745 34.8077C69.5091 37.6442 68.5956 38.2212 64.9418 38.2212L64.6533 39.2308H76.5283L76.8649 38.2212C72.2495 38.2212 72.3937 37.6442 73.2591 34.8077L77.1052 22.2596Z" fill="black"/>
<path d="M97.059 40C107.203 40 117.492 25.2885 117.492 11.7788C117.492 5 114.655 0 108.453 0C98.3571 0 88.0206 14.7115 88.0206 28.1731C88.0206 35 90.9052 40 97.059 40ZM98.0206 38.3173C92.8763 38.3173 91.1456 34.0865 91.1456 28.5096C91.1456 16.1058 99.6552 1.63461 107.492 1.63461C112.636 1.63461 114.367 5.91346 114.367 11.4904C114.367 23.8942 105.905 38.3173 98.0206 38.3173Z" fill="black"/>
<path d="M128.228 39.9519C137.074 39.9519 140.824 33.7981 143.131 26.2019L149.526 5.19231C150.391 2.35577 151.208 1.77885 154.189 1.77885L154.429 0.769232H144.333L143.997 1.77885C148.804 1.77885 148.66 2.35577 147.795 5.19231L141.401 26.0096C138.853 34.2308 134.67 38.2212 128.756 38.2212C122.987 38.2212 121.112 33.8942 123.131 27.3077L129.958 5.19231C130.776 2.35577 131.689 1.77885 135.343 1.77885L135.631 0.769232H124.045L123.756 1.77885C128.035 1.77885 127.891 2.35577 127.026 5.19231L120.247 27.0673C117.987 34.5192 120.295 39.9519 128.228 39.9519Z" fill="black"/>
</svg>
